<svg width="77" height="77" viewBox="0 0 77 77" fill="none" xmlns="http://www.w3.org/2000/svg">
<path d="M33.6937 25.6001C35.1814 25.6001 36.6692 25.6031 38.1554 25.5986C39.0749 25.5971 39.7086 25.076 39.8976 24.1683C40.1951 22.7425 40.4838 21.3152 40.7858 19.891C41.0298 18.7491 41.9536 18 43.1081 18C44.4709 18.0015 45.8352 18.0136 47.1979 18.0151C50.2612 18.0181 53.2129 18.5679 55.9697 19.965C60.4314 22.226 63.6077 25.6605 64.9423 30.6024C66.43 36.1122 65.2696 41.1266 61.7213 45.5263C58.9705 48.9367 55.3686 50.9485 51.1062 51.7474C49.9458 51.9649 48.7749 52.0586 47.5952 52.0525C45.252 52.0404 42.9088 52.0435 40.5671 52.0404C39.5242 52.0389 38.9276 52.5253 38.7118 53.5629C38.4292 54.9267 38.1554 56.2936 37.8757 57.659C37.6198 58.9156 36.7153 59.6677 35.4552 59.6662C33.5211 59.6632 31.587 59.6844 29.6545 59.6466C25.0038 59.5545 20.8485 58.1 17.3791 54.8814C14.5182 52.2262 12.721 48.9457 12.1809 45.043C11.4668 39.8896 12.8683 35.3449 16.357 31.5237C19.276 28.3263 22.9269 26.4791 27.164 25.8554C28.2619 25.6938 29.3837 25.6726 30.4965 25.6364C31.5618 25.6016 32.6285 25.6288 33.6952 25.6288C33.6937 25.6182 33.6937 25.6092 33.6937 25.6001ZM44.0067 45.555C44.0067 45.5489 44.0067 45.5429 44.0067 45.5368C44.6762 45.5368 45.3457 45.5504 46.0137 45.5338C47.1146 45.5066 48.223 45.5248 49.315 45.4054C51.7534 45.1396 53.9255 44.1972 55.7911 42.5614C59.9256 38.9366 60.3555 32.6354 56.7016 28.5151C54.3659 25.881 51.3517 24.7045 47.9135 24.5685C46.4407 24.5096 44.9648 24.5293 43.4905 24.5036C42.2914 24.4825 41.7275 25.224 41.5743 26.0623C41.3169 27.4699 41.0134 28.87 40.7054 30.2671C40.451 31.4195 39.5658 32.1249 38.4098 32.1324C36.08 32.146 33.7502 32.1551 31.4204 32.1656C30.9116 32.1672 30.4043 32.1656 29.8955 32.1656C28.1132 32.1641 26.3844 32.4843 24.7747 33.2591C20.6864 35.2226 18.3372 38.3868 18.3893 43.1157C18.4131 45.1804 19.0841 47.0487 20.3605 48.6542C22.6323 51.5103 25.6777 52.8651 29.2156 53.0916C31.2404 53.2215 33.2786 53.1732 35.3094 53.1913C36.1901 53.1989 36.8165 52.6672 36.9965 51.7943C37.2925 50.3549 37.5767 48.914 37.8787 47.4761C38.1287 46.289 39.0228 45.561 40.21 45.558C41.4776 45.5535 42.7421 45.555 44.0067 45.555Z" fill="white"/>
</svg>
