<svg width="77" height="77" viewBox="0 0 77 77" fill="none" xmlns="http://www.w3.org/2000/svg">
<path d="M45.7107 35.0827C46.4522 28.051 47.1937 21.0194 47.9319 14.0095C48.4792 13.8886 59.2448 14.9574 60.2828 15.221C60.2196 15.8933 60.1596 16.5742 60.0898 17.254C59.9993 18.1365 59.9012 19.018 59.8041 19.9005C59.7104 20.7644 59.6122 21.6273 59.5206 22.4913C59.4312 23.3378 59.3494 24.1855 59.26 25.0309C59.127 26.273 58.9874 27.5139 58.8555 28.757C58.7672 29.5851 58.693 30.4153 58.6058 31.2433C58.4738 32.4853 58.3332 33.7274 58.2012 34.9694C58.1129 35.7974 58.0388 36.6276 57.9515 37.4557C57.8196 38.6977 57.6779 39.9386 57.547 41.1818C57.4576 42.0283 57.3824 42.8759 57.2951 43.7225C57.185 44.8033 57.0923 45.8873 56.9418 46.9627C56.8928 47.3102 56.6976 47.6414 56.5504 47.9716C54.8733 51.7336 53.193 55.4935 51.5138 59.2534C51.0112 60.3799 50.5096 61.5076 50.0069 62.6341C49.9709 62.7137 49.9251 62.7888 49.8684 62.8956C48.9525 62.706 48.0496 62.5219 47.1468 62.3302C42.5867 61.3649 38.0267 60.4006 33.4677 59.431C29.1399 58.5103 24.8132 57.5821 20.4854 56.6582C20.1136 56.5787 19.7418 56.4937 19.3667 56.4305C19.117 56.388 18.9938 56.2638 18.9414 56.0143C18.3995 53.4245 17.8499 50.837 17.3037 48.2472C16.8882 46.2785 16.4739 44.3097 16.0595 42.341C15.9472 41.8071 15.9494 41.8039 16.4673 41.6938C21.2574 40.6784 26.0487 39.663 30.8388 38.6476C31.5312 38.5005 32.2236 38.3578 32.9149 38.2074C33.0719 38.1736 33.2235 38.1137 33.4536 38.0418C33.0915 36.0044 32.6107 34.003 32.1985 31.9896C31.7885 29.9838 31.3458 27.9846 30.9173 25.9821C30.4855 23.9643 30.0559 21.9455 29.6077 19.8503C33.652 18.9613 37.6723 18.1355 41.7591 17.2519C43.0371 23.2452 44.2997 29.1689 45.5624 35.0936C45.6137 35.0914 45.6627 35.0871 45.7107 35.0827ZM45.3989 46.942C46.4162 46.9529 46.9876 46.6478 47.2951 45.9255C47.3867 45.7097 47.4652 45.4875 47.5339 45.2631C47.7149 44.6791 47.5797 44.1528 47.2166 43.6756C46.2755 42.4401 44.592 42.5033 43.8003 43.8075C43.5397 44.2378 43.4263 44.7216 43.4809 45.2162C43.5365 45.7228 43.6422 46.2371 44.1493 46.5171C44.6138 46.7742 45.1132 46.9354 45.3989 46.942ZM38.8903 43.6462C38.9066 42.9751 38.6275 42.4805 38.0714 42.0904C37.4542 41.659 36.8087 41.6056 36.1054 41.7614C35.3781 41.9226 34.9365 42.3192 34.7849 43.083C34.5003 44.5135 35.0881 45.4112 36.5274 45.6466C37.8599 45.8666 38.8946 44.9907 38.8903 43.6462Z" fill="white"/>
</svg>
