<svg width="77" height="77" viewBox="0 0 77 77" fill="none" xmlns="http://www.w3.org/2000/svg">
<path d="M38 10C54.0225 10 67 23.0849 67 39.2236C67 52.138 58.6915 63.0896 47.1712 66.9495C45.7212 67.2247 45.1896 66.3212 45.1896 65.5443C45.1896 64.8503 45.2137 63.0116 45.2258 60.5763C53.2927 62.3395 54.994 56.6555 54.994 56.6555C56.3135 53.2826 58.2203 52.3815 58.2203 52.3815C60.8472 50.5697 58.0173 50.6062 58.0173 50.6062C55.1052 50.8108 53.5754 53.6162 53.5754 53.6162C50.9896 58.085 46.787 56.7943 45.1292 56.0467C44.8682 54.1569 44.1214 52.8686 43.2925 52.138C49.7329 51.4074 56.502 48.8942 56.502 37.6967C56.502 34.5064 55.3782 31.9007 53.5174 29.855C53.8437 29.1171 54.8224 26.146 53.2637 22.1205C53.2637 22.1205 50.8349 21.3363 45.2887 25.1159C42.9687 24.4657 40.5037 24.1442 38.0387 24.1296C35.5737 24.1442 33.1087 24.4657 30.7887 25.1159C25.2787 21.3363 22.8499 22.1205 22.8499 22.1205C21.2912 26.146 22.2699 29.1171 22.5599 29.855C20.7112 31.9007 19.5874 34.5064 19.5874 37.6967C19.5874 48.9234 26.3662 51.3952 32.8187 52.1137C31.8037 52.9904 30.8612 54.7827 30.8612 57.52C30.8612 61.4311 30.8974 64.5727 30.8974 65.5224C30.8974 66.2895 30.3899 67.2028 28.9037 66.9105C17.3012 63.0774 9 52.1185 9 39.2236C9 23.0849 21.9847 10 38 10Z" fill="white"/>
</svg>
