<svg width="77" height="77" viewBox="0 0 77 77" fill="none" xmlns="http://www.w3.org/2000/svg">
<path d="M57.6414 19.7233C57.6414 14.3773 52.6226 12.7067 48.2729 13.0408V13.8762C50.7823 13.8762 52.7899 14.7115 52.7899 16.5491C52.7899 17.7186 51.9534 19.2221 49.444 19.2221C47.4364 19.2221 43.5886 18.0527 40.41 17.0503C36.8968 15.8809 33.7182 14.7115 31.0415 14.7115C25.688 14.7115 21.673 18.7209 21.673 23.5657C21.673 27.5752 24.6843 28.9117 25.8553 29.4129L26.1899 28.7446C25.3534 28.2435 24.6843 27.5752 24.6843 26.0717C24.6843 24.9022 25.688 23.0645 28.5321 23.0645C31.0415 23.0645 34.2201 24.234 38.5698 25.4034C42.2503 26.4058 46.4326 27.4081 48.6075 27.7423V36.0953L44.4251 39.6036V39.9378L48.6075 43.6131V55.1404C46.4326 56.3098 43.9232 56.6439 41.9157 56.6439C37.9006 56.6439 34.2201 55.6416 31.2088 52.3003L42.4176 46.9544V28.2435L28.5321 34.2577C30.0377 30.5823 32.8817 28.2435 35.7258 26.4058L35.5585 25.9046C27.361 28.0764 20 35.5942 20 44.7826C20 55.8086 29.0339 63.9946 39.239 63.9946C50.2804 63.9946 57.3068 55.3074 57.1395 46.2861H56.4704C54.7974 49.7944 52.4553 53.1356 49.444 54.8063V43.4461L53.7936 39.9378V39.6036L49.444 35.9283V27.5752C53.459 27.5752 57.6414 24.9022 57.6414 19.7233ZM33.8855 49.9615L30.5396 51.6321C28.6994 49.1262 27.361 45.7849 27.361 41.2743C27.361 39.4366 27.5283 37.0977 28.1975 35.4271L33.8855 32.9212V49.9615Z" fill="white"/>
</svg>
