<svg width="77" height="77" viewBox="0 0 77 77" fill="none" xmlns="http://www.w3.org/2000/svg">
<path d="M24.1924 44.6562C24.1924 47.4611 21.9011 49.7524 19.0962 49.7524C16.2913 49.7524 14 47.4611 14 44.6562C14 41.8514 16.2913 39.5601 19.0962 39.5601H24.1924V44.6562Z" fill="white"/>
<path d="M26.7603 44.6564C26.7603 41.8515 29.0516 39.5602 31.8564 39.5602C34.6613 39.5602 36.9526 41.8515 36.9526 44.6564V57.4166C36.9526 60.2215 34.6613 62.5128 31.8564 62.5128C29.0516 62.5128 26.7603 60.2215 26.7603 57.4166V44.6564Z" fill="white"/>
<path d="M31.8564 24.1924C29.0516 24.1924 26.7603 21.9011 26.7603 19.0962C26.7603 16.2913 29.0516 14 31.8564 14C34.6613 14 36.9526 16.2913 36.9526 19.0962V24.1924H31.8564Z" fill="white"/>
<path d="M31.8564 26.7603C34.6613 26.7603 36.9526 29.0516 36.9526 31.8564C36.9526 34.6613 34.6613 36.9526 31.8564 36.9526H19.0962C16.2913 36.9526 14 34.6613 14 31.8564C14 29.0516 16.2913 26.7603 19.0962 26.7603H31.8564Z" fill="white"/>
<path d="M52.3203 31.8564C52.3203 29.0516 54.6116 26.7603 57.4165 26.7603C60.2214 26.7603 62.5127 29.0516 62.5127 31.8564C62.5127 34.6613 60.2214 36.9526 57.4165 36.9526H52.3203V31.8564Z" fill="white"/>
<path d="M49.7525 31.8564C49.7525 34.6613 47.4611 36.9526 44.6563 36.9526C41.8514 36.9526 39.5601 34.6613 39.5601 31.8564V19.0962C39.5601 16.2913 41.8514 14 44.6563 14C47.4611 14 49.7525 16.2913 49.7525 19.0962V31.8564Z" fill="white"/>
<path d="M44.6563 52.3203C47.4611 52.3203 49.7525 54.6116 49.7525 57.4165C49.7525 60.2214 47.4611 62.5127 44.6563 62.5127C41.8514 62.5127 39.5601 60.2214 39.5601 57.4165V52.3203H44.6563Z" fill="white"/>
<path d="M44.6562 49.7524C41.8514 49.7524 39.5601 47.4611 39.5601 44.6562C39.5601 41.8514 41.8514 39.5601 44.6562 39.5601H57.4165C60.2214 39.5601 62.5127 41.8514 62.5127 44.6562C62.5127 47.4611 60.2214 49.7524 57.4165 49.7524H44.6562Z" fill="white"/>
</svg>
