<svg viewBox="0 0 77 77" fill="none" xmlns="http://www.w3.org/2000/svg">
  <path d="M22.5 50.5h-3.6v-1-1.1c-.1-.1-.2 0-.2 0l-.6.5a8.5 8.5 0 0 1-4.1 2c-1.9.2-3.7 0-5.5-.7A9 9 0 0 1 3 42.4v-1.2-14.8-.3l.3-.1h3.3v15.1l.3 1.8a6 6 0 0 0 11.8-.8v-1-14.7-.4h3.7v24.5zM28.7 48.3v2.3h-3.5v-.2-.2-23.8-.4h3.5v8.9l.3-.2a8.9 8.9 0 0 1 6.7-2.4c1.3 0 2.6.4 3.8 1.1a9.1 9.1 0 0 1 4.8 6.4 9.3 9.3 0 0 1-7.5 11c-.7.2-1.5.2-2.2.2a8.9 8.9 0 0 1-5.9-2.7zm6.1-.5c1 0 1.8-.2 2.6-.5 2.5-1.2 4-4 3.5-6.8a6.1 6.1 0 0 0-9-4.3 6.2 6.2 0 0 0 3 11.6zM64 42.7H49.5v.2a6 6 0 0 0 5.9 5 6.1 6.1 0 0 0 5-2.4c0-.1 0-.2.2-.3l2.5 2a9.4 9.4 0 0 1-8.8 3.7 9 9 0 0 1-3.6-1.1 9.3 9.3 0 0 1-4.7-8.5 9.3 9.3 0 0 1 5.6-8.3 9.5 9.5 0 0 1 6.7-.1c2.4.9 4 2.5 5 4.8.4.9.6 1.8.7 2.7V42.7zM60.4 40v-.2l-.4-1.1a5.5 5.5 0 0 0-8-2.3c-1.3.9-2 2-2.4 3.4v.2H60.5zM69.5 50.5H66v-.1-17.7H69.4l.1.2v1.8l.2-.2a4.7 4.7 0 0 1 3.8-2H75v3.2l-.2.1h-1.3c-.5 0-1 0-1.4.3-.8.3-1.4.8-1.9 1.6a5 5 0 0 0-.6 1.9v10.9z" fill="#fff"/>
</svg>
