<svg width="77" height="77" viewBox="0 0 77 77" fill="none" xmlns="http://www.w3.org/2000/svg">
<path d="M53.2683 60.6836C53.5002 60.7667 53.7185 60.8359 53.9232 60.919C55.6423 61.6249 56.6246 62.9262 56.8975 64.7673C56.9111 64.8226 56.8975 64.9057 56.9248 64.9472C57.1021 65.1826 56.9657 65.3348 56.7883 65.4317C56.4473 65.6255 56.1062 65.847 55.7378 65.9301C54.4553 66.2346 53.1592 66.5392 51.863 66.733C48.534 67.2175 45.1777 67.3836 41.8077 67.4666C38.2877 67.5497 34.7677 67.4943 31.2613 67.3005C28.669 67.1482 26.0904 66.9544 23.5391 66.4284C22.7614 66.2761 21.9973 66.027 21.247 65.7501C20.6466 65.5286 20.5921 65.3348 20.7012 64.6842C21.0287 62.677 22.1611 61.3896 24.0439 60.7667C24.1257 60.739 24.194 60.7113 24.3031 60.6698C24.0439 60.4898 23.7983 60.3237 23.5663 60.1576C20.9741 58.3165 19.3914 55.7694 18.5592 52.7101C17.9316 50.4538 17.6723 48.1282 17.686 45.8026C17.6996 42.7571 17.8088 39.7117 17.8634 36.6663C17.9043 34.1054 17.9725 31.5444 17.5496 29.0112C17.4404 28.3744 17.1539 27.7653 16.881 27.1839C16.308 25.9658 15.5576 24.8722 14.6026 23.917C14.2751 23.5986 13.9477 23.2941 13.4974 23.1418C13.2655 23.0726 12.9517 22.948 13.0063 22.6712C13.0472 22.4774 13.3064 22.2559 13.5111 22.2005C14.357 21.9513 15.2029 21.716 16.0624 21.5499C16.9902 21.3699 17.9316 21.273 18.9003 21.1208C18.873 21.0377 18.8593 20.9408 18.8184 20.8439C18.3272 19.4735 17.8224 18.1169 17.3313 16.7464C17.1402 16.2204 16.8128 15.7774 16.3899 15.4175C15.7895 14.8915 15.1483 14.3931 14.548 13.8533C14.2751 13.6041 14.0432 13.3134 13.8385 13.0089C13.4292 12.3859 13.4974 11.2508 14.2069 10.6694C15.1483 9.90805 16.1852 9.36818 17.3449 9.06364C18.3136 8.81447 19.2959 9.31281 19.6234 10.2818C19.8144 10.8355 19.869 11.4308 19.9645 12.0122C20.0873 12.7458 20.1555 13.4795 20.2919 14.1993C20.3465 14.4623 20.4693 14.7254 20.6193 14.9607C21.7654 16.8018 22.9387 18.6429 24.1121 20.484C24.2212 20.6501 24.3167 20.747 24.5487 20.7332C26.4451 20.6363 28.3416 20.5117 30.238 20.484C33.7171 20.4148 37.1962 20.3317 40.6617 20.3871C44.5774 20.4425 48.4931 20.567 52.4088 20.7885C55.1238 20.9408 57.8389 21.273 60.554 21.5914C61.6318 21.716 62.696 22.0205 63.7738 22.2697C64.0058 22.3251 64.2241 22.4635 64.4287 22.5881C64.6061 22.685 64.6061 22.8234 64.4424 22.9619C64.3469 23.0311 64.265 23.1141 64.1558 23.1418C63.4737 23.3495 63.0234 23.8755 62.5732 24.3738C61.4408 25.6335 60.6085 27.0732 60.1037 28.679C59.8991 29.3157 59.8854 30.0079 59.8172 30.6862C59.5716 33.5516 59.7081 36.431 59.8036 39.2964C59.8718 41.4005 59.94 43.5185 59.9127 45.6365C59.8854 48.3358 59.6262 51.0075 58.7803 53.5961C57.8116 56.5308 56.1062 58.8841 53.5139 60.559C53.4184 60.5729 53.3638 60.6144 53.2683 60.6836ZM50.3759 32.6242C50.6351 32.9287 50.8534 33.2194 51.099 33.4824C51.9995 34.4514 52.3542 35.6281 52.3542 36.9293C52.3678 39.6148 51.5492 42.0788 50.3759 44.4183C49.298 46.5639 47.8928 48.5158 46.1055 50.1354C44.9321 51.2013 43.6223 51.9903 41.9851 52.1149C40.5389 52.2118 39.693 51.5197 39.12 50.2738C39.0518 50.1215 39.0518 50.0108 39.1882 49.8862C39.4474 49.637 39.693 49.3602 39.9249 49.0833C41.8896 46.8131 43.5678 44.3352 45.0958 41.7605C45.8735 40.4454 46.6103 39.1165 47.1014 37.663C47.4016 36.777 47.6199 35.8911 47.5107 34.9498C47.3743 33.8285 46.6239 33.0948 45.5188 33.1087C44.9458 33.1225 44.3454 33.2056 43.7997 33.3855C41.7668 34.0361 40.1159 35.2682 38.7107 36.8601C36.6505 39.1718 35.2589 41.885 34.2765 44.8059C33.7171 46.467 33.2669 48.1697 33.3078 49.9277C33.3215 50.7583 33.0486 51.2151 32.3528 51.5612C31.5751 51.9488 30.8111 52.281 29.9242 52.1426C28.8464 51.9903 28.096 51.4504 27.7958 50.3569C27.714 50.0385 27.6185 49.7201 27.5639 49.3879C27.3456 47.9344 27.523 46.5085 27.9186 45.0966C28.5326 42.8679 29.5559 40.8468 30.7428 38.8811C32.1618 36.514 33.8126 34.313 35.4908 32.1258C35.5727 32.0151 35.6545 31.9043 35.791 31.7382C35.2725 31.8628 34.8495 31.9597 34.4402 32.0566C32.4074 32.5411 30.3472 32.6519 28.2734 32.3612C27.1137 32.195 25.954 32.0705 24.7943 32.0289C23.0343 31.9736 21.7518 32.7903 20.9331 34.3684C20.5102 35.1989 20.2373 36.071 20.1418 37.0539C20.7831 36.5971 21.4652 36.431 22.1884 36.4586C23.1161 36.5002 24.0439 36.5555 24.9853 36.6386C26.0495 36.7217 27.1137 36.8739 28.1779 36.7217C28.6145 36.6524 29.051 36.5694 29.5013 36.4863C29.4876 36.5279 29.4876 36.5555 29.474 36.5694C29.3921 36.694 29.3103 36.8047 29.2284 36.9293C27.4957 39.5456 25.9267 42.2588 24.7261 45.1796C23.7574 47.5191 23.5118 49.9139 24.0302 52.3918C24.5214 54.7035 25.7766 55.9355 28.4644 56.1432C29.7605 56.2539 30.9611 55.8386 32.0936 55.2572C32.8985 54.8419 33.6626 54.3574 34.4539 53.8868C34.4402 53.8868 34.4675 53.8868 34.4812 53.9006C34.5903 54.0114 34.6858 54.136 34.795 54.2467C35.5727 55.0496 36.4322 55.7002 37.5646 55.8802C39.2155 56.157 40.8391 56.0601 42.4217 55.5479C44.7002 54.8143 46.5966 53.4438 48.2884 51.7827C50.2258 49.8862 51.7812 47.6852 53.2274 45.3873C54.7145 43.034 55.9015 40.57 56.5018 37.8429C56.8566 36.2372 57.1158 34.6175 56.8429 32.9564C56.6655 31.8628 56.2153 30.9353 55.3558 30.2432C54.6327 29.6618 53.8686 29.6064 53.0773 30.0771C52.9136 30.174 52.7362 30.2847 52.5998 30.4232C51.8221 31.143 51.1126 31.8767 50.3759 32.6242ZM25.7902 23.1003C25.6265 23.1003 25.531 23.1003 25.4219 23.1003C23.5391 22.9619 21.6563 22.8096 19.7734 22.6712C19.5415 22.6573 19.4051 22.6019 19.3505 22.3666C19.3232 22.2005 19.2277 22.1313 19.0503 22.159C18.4773 22.242 17.8906 22.3112 17.3176 22.4081C17.0857 22.4497 16.7582 22.4912 16.7719 22.7957C16.7855 23.0864 17.0993 23.128 17.3449 23.1695C17.8906 23.2664 18.4364 23.3633 18.9821 23.4048C21.4789 23.6125 23.962 23.8478 26.4588 24.0001C28.7372 24.1385 31.0294 24.2354 33.3078 24.2492C37.0462 24.2769 40.7981 24.2769 44.5365 24.2216C46.8695 24.1939 49.2025 24.0693 51.5492 23.9724C54.3461 23.8478 57.1294 23.6125 59.9127 23.211C60.0901 23.1833 60.2811 23.1557 60.4448 23.0726C60.5676 23.0172 60.6631 22.8788 60.7722 22.7819C60.6631 22.6712 60.5676 22.5327 60.4312 22.4635C60.3084 22.3943 60.1446 22.3666 59.9946 22.3389C58.2618 22.1451 56.5291 21.9098 54.7964 21.7852C52.1359 21.5914 49.4754 21.4668 46.8149 21.3561C44.4819 21.273 42.1352 21.2315 39.8021 21.2315C37.3054 21.2315 34.8223 21.2592 32.3255 21.3146C30.3335 21.3561 28.3552 21.453 26.3633 21.536C25.8857 21.5499 25.3946 21.5914 24.8625 21.6329C25.2036 22.159 25.4764 22.6019 25.7902 23.1003Z" fill="white"/>
<path d="M36.8823 47.5328C36.9642 47.1452 37.0051 46.7438 37.1143 46.3562C37.7964 43.9752 38.847 41.7603 40.1841 39.6839C40.7434 38.8118 41.4666 38.0643 42.3261 37.4691C42.5444 37.3168 42.79 37.0953 43.0492 37.2753C43.3084 37.4552 43.2266 37.7736 43.1993 38.0505C43.0765 39.324 42.4762 40.4176 41.9031 41.525C40.7707 43.6707 39.2427 45.4841 37.5099 47.1452C37.3462 47.3113 37.1416 47.4359 36.9642 47.5743C36.9369 47.5605 36.9096 47.5467 36.8823 47.5328Z" fill="white"/>
</svg>
