<svg width="77" height="77" viewBox="0 0 77 77" fill="none" xmlns="http://www.w3.org/2000/svg">
<path fill-rule="evenodd" clip-rule="evenodd" d="M30.1517 34.6C32 36.48 32 39.52 30.1517 41.38C28.3034 43.26 25.3146 43.26 23.486 41.38C21.6376 39.5 21.6376 36.46 23.486 34.6C25.3146 32.74 28.3034 32.74 30.1517 34.6ZM26.809 30C28.8146 30 30.8399 30.78 32.3736 32.34C35.441 35.46 35.441 40.52 32.3736 43.66C29.3062 46.78 24.3315 46.78 21.2444 43.66C18.177 40.54 18.177 35.48 21.2444 32.34C22.7781 30.78 24.7837 30 26.809 30ZM48.8904 32.34C51.9579 35.46 51.9579 40.52 48.8904 43.66C45.823 46.78 40.8483 46.78 37.7612 43.66C34.6938 40.54 34.6938 35.48 37.7612 32.34C39.2949 30.78 41.3006 30 43.3258 30C45.3511 30 47.3567 30.78 48.8904 32.34ZM7.14607 45.96L7.93258 46H19.7303L19.691 45.2C19.5927 43.88 18.6685 42.92 17.3708 42.84L16.5843 42.8H9.50562L18.9438 33.2L18.9045 32.4C18.8455 31.08 17.882 30.12 16.5843 30.04L15.7978 30H4L4.03933 30.8C4.13764 32.1 5.08146 33.08 6.35955 33.16L7.14607 33.2H14.2247L4.78652 42.8L4.82584 43.6C4.90449 44.92 5.84831 45.88 7.14607 45.96ZM60.9831 34.8C61.2584 35.28 61.3371 35.8 61.3764 36.4L61.4157 37.2V42.8L61.4551 43.6C61.5337 44.9 62.4775 45.88 63.7753 45.96L64.5618 46V37.2L64.6011 36.4C64.6404 35.8 64.7191 35.26 64.9944 34.78C65.5449 33.82 66.5478 33.2 67.7079 33.2C68.868 33.2 69.8904 33.84 70.441 34.8C70.7163 35.28 70.7949 35.82 70.8146 36.4L70.8539 37.2V42.8L70.8933 43.6C70.9719 44.92 71.9157 45.88 73.2135 45.96L74 46V37.2V36.4C74 32.86 71.1882 30 67.7079 30C65.8202 30 64.1489 30.84 62.9888 32.16C61.8287 30.84 60.1573 30 58.2697 30C56.9719 30 55.7528 30.4 54.75 31.1C54.1404 30.4 52.764 30 51.9775 30V46L52.764 45.96C54.0815 45.88 55.0253 44.92 55.0843 43.6L55.1236 42.8V37.2L55.1629 36.4C55.2022 35.8 55.2809 35.26 55.5562 34.8C56.1067 33.84 57.1096 33.2 58.2697 33.2C59.4298 33.2 60.4522 33.84 60.9831 34.8ZM46.6685 41.38C48.5169 39.52 48.5169 36.48 46.6685 34.6C44.8202 32.74 41.8315 32.74 40.0028 34.6C38.1545 36.46 38.1545 39.5 40.0028 41.38C41.8315 43.26 44.8202 43.26 46.6685 41.38Z" fill="white"/>
</svg>
